0
SECTION
2
HEADER
9
$INSUNITS
70
4
9
$ACADVER
1
AC1014
9
$HANDSEED
5
FFFF
0
ENDSEC
0
SECTION
2
TABLES
0
TABLE
2
VPORT
5
8
100
AcDbSymbolTable
0
ENDTAB
0
TABLE
2
LTYPE
5
5
100
AcDbSymbolTable
0
LTYPE
5
14
100
AcDbSymbolTableRecord
100
AcDbLinetypeTableRecord
2
BYBLOCK
70
0
0
LTYPE
5
15
100
AcDbSymbolTableRecord
100
AcDbLinetypeTableRecord
2
BYLAYER
70
0
0
LTYPE
5
16
100
AcDbSymbolTableRecord
100
AcDbLinetypeTableRecord
2
DASHED
70
0
3
Dashed __ __ __ __ __ __ __ __ __ __ __ __ __ _
72
65
73
2
40
0.75
49
0.5
74
0
49
-0.25
74
0
0
ENDTAB
0
TABLE
2
LAYER
5
2
100
AcDbSymbolTable
70
2
0
LAYER
5
50
100
AcDbSymbolTableRecord
100
AcDbLayerTableRecord
2
0
70
0
62
7
6
CONTINUOUS
0
ENDTAB
0
TABLE
2
STYLE
5
3
100
AcDbSymbolTable
70
1
0
STYLE
5
11
100
AcDbSymbolTableRecord
100
AcDbTextStyleTableRecord
2
STANDARD
70
0
0
ENDTAB
0
TABLE
2
VIEW
5
6
100
AcDbSymbolTable
70
0
0
ENDTAB
0
TABLE
2
UCS
5
7
100
AcDbSymbolTable
70
0
0
ENDTAB
0
TABLE
2
APPID
5
9
100
AcDbSymbolTable
70
2
0
APPID
5
12
100
AcDbSymbolTableRecord
100
AcDbRegAppTableRecord
2
ACAD
70
0
0
ENDTAB
0
TABLE
2
DIMSTYLE
5
A
100
AcDbSymbolTable
70
1
0
ENDTAB
0
TABLE
2
BLOCK_RECORD
5
1
100
AcDbSymbolTable
70
1
0
BLOCK_RECORD
5
1F
100
AcDbSymbolTableRecord
100
AcDbBlockTableRecord
2
*MODEL_SPACE
0
BLOCK_RECORD
5
1B
100
AcDbSymbolTableRecord
100
AcDbBlockTableRecord
2
*PAPER_SPACE
0
ENDTAB
0
ENDSEC
0
SECTION
2
BLOCKS
0
BLOCK
5
20
100
AcDbEntity
100
AcDbBlockBegin
2
*MODEL_SPACE
0
ENDBLK
5
21
100
AcDbEntity
100
AcDbBlockEnd
0
BLOCK
5
1C
100
AcDbEntity
100
AcDbBlockBegin
2
*PAPER_SPACE
0
ENDBLK
5
1D
100
AcDbEntity
100
AcDbBlockEnd
0
ENDSEC
0
SECTION
2
ENTITIES
0
POINT
5
100
100
AcDbEntity
8
0
100
AcDbPoint
10
-0.16918146632099784
20
0.047608999313006883
30
0
0
LWPOLYLINE
5
101
100
AcDbEntity
8
0
100
AcDbPolyline
90
23
70
1
43
0.0
10
-14.810774959962671
20
-18.921354061595586
10
-21.603209813345188
20
-18.921354061595583
10
-28.069554107362514
20
-26.824663754283399
10
-28.069554107362514
20
-34.983120663823549
10
-25.169181466320978
20
-38.952391000686944
10
24.830818533678954
20
-38.952391000686973
10
27.731191174720475
20
-34.983120663823577
10
27.731191174720479
20
-26.824663754283428
10
20.446665062521355
20
-17.921354061595608
10
12.79131399722937
20
-17.921354061595601
10
13.340378802478035
20
-24.197193503193368
10
11.780353724196198
20
-20.610116740303486
10
8.621857637312111
20
-20.610116740303482
10
8.6218576373121039
20
-27.177176930224896
10
6.3015022422076878
20
-21.841818521376581
10
0.90513840480308083
20
-21.841818521376581
10
-0.16918146632101116
20
-26.952391000686955
10
-1.2435013374451076
20
-21.841818521376581
10
-6.6398651748497128
20
-21.841818521376574
10
-8.9602205699541404
20
-27.177176930224888
10
-8.9602205699541351
20
-20.610116740303475
10
-12.118716656838227
20
-20.610116740303472
10
-15.673668317161491
20
-28.784270266083233
0
LWPOLYLINE
5
102
100
AcDbEntity
8
0
100
AcDbPolyline
90
5
70
1
43
0.0
10
-25.169181466320964
20
9.047608999313006
10
-25.169181466320989
20
-23.279763859677107
10
-21.603209813345188
20
-18.921354061595586
10
-14.810774959962671
20
-18.921354061595586
10
-12.363807761557833
20
9.047608999313006
0
LWPOLYLINE
5
103
100
AcDbEntity
8
0
100
AcDbPolyline
90
5
70
1
43
0.0
10
12.79131399722937
20
-17.921354061595601
10
20.446665062521362
20
-17.921354061595608
10
24.830818533678961
20
-23.279763859677129
10
24.830818533678979
20
9.0476089993129705
10
10.431835462350477
20
9.0476089993129882
0
LINE
5
104
100
AcDbEntity
8
0
100
AcDbLine
10
-23.500000000000011
20
-35.000000000000014
30
0
11
-23.500000000000011
21
-8.8817841970012523e-15
31
0
0
LINE
5
105
100
AcDbEntity
8
0
100
AcDbLine
10
-23.500000000000011
20
-12.037319875928583
30
0
11
-15.000000000000009
21
-12.037319875928583
31
0
0
LINE
5
106
100
AcDbEntity
8
0
100
AcDbLine
10
-15.000000000000009
20
-12.037319875928583
30
0
11
-15.000000000000009
21
-0.012459586038484627
31
0
0
LWPOLYLINE
5
107
100
AcDbEntity
8
0
100
AcDbPolyline
90
4
70
1
43
0.0
10
-20.982437308010425
20
-31.161194071898382
10
21.032134789195936
20
-31.161194071898382
10
21.032134789195936
20
-1.3163600994000633
10
-20.982437308010425
20
-1.3163600994000646
0
LINE
5
108
100
AcDbEntity
8
0
100
AcDbLine
10
-0.16918146632099784
20
0.047608999313006883
30
0
11
-0.16918146632099784
21
-29.952391000686994
31
0
0
ENDSEC
0
SECTION
2
OBJECTS
0
DICTIONARY
5
C
100
AcDbDictionary
3
ACAD_GROUP
350
D
3
ACAD_MLINESTYLE
350
17
0
DICTIONARY
5
D
100
AcDbDictionary
0
DICTIONARY
5
1A
330
C
100
AcDbDictionary
0
DICTIONARY
5
17
100
AcDbDictionary
0
ENDSEC
0
EOF
